<svg width="28" height="29" viewBox="0 0 28 29" fill="none" xmlns="http://www.w3.org/2000/svg">
<g id="ri:instagram-line">
<path id="Vector" d="M14.0013 10.7096C13.0731 10.7096 12.1828 11.0784 11.5265 11.7348C10.8701 12.3911 10.5013 13.2814 10.5013 14.2096C10.5013 15.1379 10.8701 16.0281 11.5265 16.6845C12.1828 17.3409 13.0731 17.7096 14.0013 17.7096C14.9296 17.7096 15.8198 17.3409 16.4762 16.6845C17.1326 16.0281 17.5013 15.1379 17.5013 14.2096C17.5013 13.2814 17.1326 12.3911 16.4762 11.7348C15.8198 11.0784 14.9296 10.7096 14.0013 10.7096ZM14.0013 8.3763C15.5484 8.3763 17.0322 8.99088 18.1261 10.0848C19.2201 11.1788 19.8347 12.6625 19.8347 14.2096C19.8347 15.7567 19.2201 17.2405 18.1261 18.3344C17.0322 19.4284 15.5484 20.043 14.0013 20.043C12.4542 20.043 10.9705 19.4284 9.87654 18.3344C8.78258 17.2405 8.168 15.7567 8.168 14.2096C8.168 12.6625 8.78258 11.1788 9.87654 10.0848C10.9705 8.99088 12.4542 8.3763 14.0013 8.3763ZM21.5847 8.08464C21.5847 8.47141 21.431 8.84234 21.1575 9.11583C20.884 9.38932 20.5131 9.54297 20.1263 9.54297C19.7396 9.54297 19.3686 9.38932 19.0951 9.11583C18.8216 8.84234 18.668 8.47141 18.668 8.08464C18.668 7.69786 18.8216 7.32693 19.0951 7.05344C19.3686 6.77995 19.7396 6.6263 20.1263 6.6263C20.5131 6.6263 20.884 6.77995 21.1575 7.05344C21.431 7.32693 21.5847 7.69786 21.5847 8.08464ZM14.0013 4.8763C11.115 4.8763 10.6437 4.88447 9.30083 4.94397C8.38616 4.98714 7.7725 5.10964 7.20316 5.3313C6.72697 5.50673 6.29634 5.78704 5.94316 6.15147C5.57832 6.50452 5.2976 6.93516 5.12183 7.41147C4.90016 7.98314 4.77766 8.59564 4.73566 9.50914C4.675 10.7971 4.66683 11.2475 4.66683 14.2096C4.66683 17.0971 4.675 17.5673 4.7345 18.9101C4.77766 19.8236 4.90016 20.4385 5.12066 21.0066C5.319 21.5141 5.55233 21.8793 5.93966 22.2666C6.33283 22.6586 6.698 22.8931 7.19966 23.0868C7.776 23.3096 8.38966 23.4333 9.29966 23.4753C10.5877 23.536 11.038 23.543 14.0002 23.543C16.8877 23.543 17.3578 23.5348 18.7007 23.4753C19.613 23.4321 20.2267 23.3096 20.7972 23.0891C21.2734 22.9137 21.704 22.6334 22.0572 22.269C22.4503 21.877 22.6848 21.5118 22.8785 21.009C23.1002 20.435 23.2238 19.8213 23.2658 18.909C23.3265 17.6221 23.3335 17.1706 23.3335 14.2096C23.3335 11.3233 23.3253 10.852 23.2658 9.50914C23.2227 8.5968 23.099 7.9808 22.8785 7.41147C22.7031 6.93527 22.4228 6.50464 22.0583 6.15147C21.7053 5.78662 21.2746 5.50591 20.7983 5.33014C20.2267 5.10847 19.613 4.98597 18.7007 4.94397C17.4138 4.8833 16.9635 4.8763 14.0002 4.8763M14.0002 2.54297C17.17 2.54297 17.5655 2.55464 18.8103 2.61297C20.0517 2.6713 20.8987 2.86614 21.6418 3.15547C22.4118 3.4518 23.0605 3.85314 23.7092 4.50064C24.3026 5.08366 24.7617 5.78919 25.0543 6.56797C25.3425 7.31114 25.5385 8.15814 25.5968 9.40064C25.6517 10.6443 25.6668 11.0398 25.6668 14.2096C25.6668 17.3795 25.6552 17.775 25.5968 19.0186C25.5385 20.2623 25.3425 21.107 25.0543 21.8513C24.7617 22.6301 24.3026 23.3356 23.7092 23.9186C23.1261 24.5121 22.4206 24.9712 21.6418 25.2638C20.8987 25.552 20.0517 25.748 18.8103 25.8063C17.5655 25.8611 17.17 25.8763 14.0002 25.8763C10.8303 25.8763 10.4348 25.8646 9.19 25.8063C7.94866 25.748 7.10283 25.552 6.3585 25.2638C5.57971 24.9712 4.87418 24.5121 4.29116 23.9186C3.69769 23.3356 3.23861 22.6301 2.946 21.8513C2.65666 21.1081 2.46183 20.2611 2.4035 19.0186C2.3475 17.775 2.3335 17.3795 2.3335 14.2096C2.3335 11.0398 2.34516 10.6443 2.4035 9.40064C2.46183 8.15697 2.65666 7.3123 2.946 6.56797C3.23861 5.78919 3.69769 5.08366 4.29116 4.50064C4.87418 3.90716 5.57971 3.44809 6.3585 3.15547C7.10166 2.86614 7.9475 2.6713 9.19 2.61297C10.436 2.55814 10.8315 2.54297 14.0013 2.54297" fill="white"/>
</g>
</svg>
