<svg width="22" height="23" viewBox="0 0 22 23" fill="none" xmlns="http://www.w3.org/2000/svg">
<g id="fontisto:linkedin" clip-path="url(#clip0_183_540)">
<path id="Vector" d="M5.02108 7.3576V22.2094H0.273476V7.3576H5.02108ZM5.32292 2.77243L5.32468 2.86226C5.32468 3.54885 5.04484 4.16668 4.5978 4.59935L4.59604 4.60026C4.33262 4.85102 4.02412 5.04493 3.68835 5.1708C3.35258 5.29667 2.99621 5.352 2.6398 5.3336H2.64596H2.61692C2.26871 5.35054 1.92079 5.29425 1.59392 5.1681C1.26705 5.04195 0.967913 4.84852 0.714356 4.59935L0.715236 4.60026C0.47993 4.36377 0.294602 4.07872 0.171104 3.76335C0.0476073 3.44797 -0.0113389 3.10922 -0.00196358 2.76876V2.77243L-0.00284358 2.70918C-0.00284358 2.01068 0.282276 1.38185 0.737236 0.940929L0.738996 0.940012C1.26767 0.438997 1.9654 0.176624 2.6794 0.210345H2.67412C3.02398 0.192378 3.37376 0.247607 3.70279 0.372771C4.03183 0.497936 4.33346 0.6905 4.58988 0.939095L4.58812 0.937262C4.82079 1.17025 5.00583 1.44984 5.1321 1.75923C5.25838 2.06861 5.32328 2.40141 5.32292 2.7376V2.7761V2.77426V2.77243ZM22.0975 13.6991V22.2094H17.3648V14.2665C17.413 13.3949 17.2059 12.5286 16.7708 11.7823L16.7814 11.8016C16.5764 11.5017 16.3005 11.262 15.9804 11.1059C15.6603 10.9498 15.3069 10.8825 14.9545 10.9106H14.9616C14.4108 10.8898 13.8709 11.0744 13.4392 11.4313L13.4444 11.4276C13.0458 11.7626 12.7337 12.1958 12.5363 12.688L12.5292 12.7091C12.4094 13.1032 12.3561 13.5161 12.3717 13.9292V13.9228V22.2113H7.63908C7.65844 18.225 7.66812 14.9928 7.66812 12.5148C7.66812 10.0367 7.66342 8.55812 7.65404 8.07901L7.63996 7.35943H12.3726V9.51726H12.3436C12.5319 9.20101 12.7264 8.92693 12.9402 8.67026L12.9332 8.67851C13.1801 8.39557 13.4465 8.13951 13.7322 7.91035L13.7463 7.89935C14.1123 7.60644 14.5278 7.38756 14.9712 7.25401L14.9976 7.2476C15.5115 7.09213 16.0439 7.01373 16.579 7.01476H16.6485H16.645C17.3826 6.98289 18.1181 7.11808 18.8007 7.41102C19.4833 7.70395 20.0968 8.14765 20.5988 8.71151L20.6015 8.71518C21.6 9.8494 22.0992 11.5104 22.0992 13.6982L22.0975 13.6991Z" fill="white"/>
</g>
<defs>
<clipPath id="clip0_183_540">
<rect width="22" height="22" fill="white" transform="translate(0 0.208984)"/>
</clipPath>
</defs>
</svg>
