<svg width="1920" height="870" viewBox="0 0 1920 870" fill="none" xmlns="http://www.w3.org/2000/svg">
<path d="M1887.38 370.301C1873.71 354.13 1848.65 334.801 1806.6 334.801C1731.79 334.801 1679.91 411.808 1640.81 482.153C1640.33 479.647 1639.78 477.107 1639.3 474.497C1655.81 450.603 1673.15 424.716 1690.24 397.972C1797.57 229.815 1832.65 125.721 1804.12 60.5247C1795.13 39.9943 1771.27 4.90723 1712.29 0.478429C1653.48 -3.95037 1602.7 22.4851 1569.29 74.9441C1541.86 118.168 1511 203.173 1519.68 363.331C1521.23 392.548 1524.04 421.421 1527.89 448.852C1520.71 484.831 1477.97 517.79 1477.97 517.79C1455.59 539.522 1393.52 541.41 1383.04 497.122C1369.07 424.098 1422.49 399.208 1439.9 396.976C1532.15 396.976 1527.13 288.934 1455.66 288.934C1451.33 288.488 1446.94 288.282 1442.64 288.282C1406.84 288.282 1370.89 303.628 1341.85 328.931C1312.84 354.268 1290.79 389.561 1282.8 429.454C1278.26 452.01 1274.8 477.21 1274.18 502.203C1249.01 527.266 1231.16 537.256 1222.82 540.312C1221.68 537.771 1220.96 534.715 1220.79 531.454C1217.46 462.722 1226.94 395.569 1241.67 335.66C1243.18 333.222 1244.55 330.716 1245.68 328.107C1264.63 309.327 1336.7 267.03 1391.42 269.399C1421.36 270.704 1446.7 247.496 1447.97 217.558C1449.27 187.621 1426.06 162.284 1396.12 160.945C1362.41 159.503 1328.08 166.301 1296.25 177.219C1316.54 131.626 1333.06 103.954 1333.5 103.199C1338.86 94.4102 1341.4 84.66 1341.4 75.0471C1341.4 56.7139 1332.13 38.8614 1315.34 28.6305C1289.7 13.0782 1256.33 21.1805 1240.74 46.792C1236.34 54.0704 1156.11 187.69 1124.35 364.567C1108.9 264.559 973.431 274.274 993.79 398.315C994.477 412.666 1003.61 451.667 1000.11 485.964C993.069 554.903 917.436 590.161 922.105 469.039C922.346 461.76 928.663 424.064 954.515 403.19C1007.28 358.216 955.991 274.927 881.285 312.039C844.241 333.016 826.526 367.005 815.024 405.079C813.136 405.834 811.317 406.521 809.634 407.173C811.042 305.757 749.279 289.93 707.429 287.321C702.828 287.046 698.228 286.943 693.627 287.115C618.097 289.998 544.25 354.302 530.345 434.604C526.534 456.817 523.822 481.467 523.994 505.911C523.857 506.083 523.754 506.289 523.616 506.495C520.526 511.336 521.591 591.02 566.771 622.982C583.216 636.406 605.326 644.989 634.68 646.259C638.078 646.397 641.443 646.431 644.739 646.294C749.657 646.294 781.62 565.374 798.442 488.917H798.477C792.228 563.691 812.45 641.899 918.02 649.487C921.865 649.761 925.71 649.933 929.487 649.933C1044.36 649.933 1088.27 573.064 1111.58 497.122C1111.45 510.237 1111.65 523.386 1112.34 536.638C1113.57 561.803 1121.54 585.561 1135.41 605.302C1158.82 638.672 1188.76 647.77 1209.77 649.555C1212.62 649.796 1215.47 649.933 1218.35 649.933C1246.37 649.933 1276.24 638.569 1307.58 616.082C1322.86 631.737 1344.32 642.346 1373.91 644.852C1431.42 649.933 1469.59 637.917 1497.47 627.995C1512.58 620.854 1525.42 613.404 1535.82 605.954C1546.26 598.47 1554.29 591.02 1559.78 583.81C1563.25 592.565 1566.82 600.255 1570.5 606.778C1590.44 642.14 1616.02 649.178 1634.01 648.731C1667.38 647.976 1684.75 620.099 1692.17 608.22C1699.21 596.993 1706.76 582.849 1715.51 566.438C1730.41 538.423 1749.06 503.542 1769.04 476.557C1793.69 443.187 1806.6 440.612 1806.6 440.578H1807.63C1811.78 449.538 1823.28 488.436 1800.38 620.751C1795.37 649.555 1814.73 676.952 1843.5 681.896C1846.56 682.377 1849.58 682.685 1852.57 682.685C1877.83 682.685 1900.22 664.49 1904.65 638.741C1929.57 494.582 1924.39 414.245 1887.34 370.232L1887.38 370.301ZM680.444 395.603C685.182 395.054 690.022 395.157 694.898 395.946C706.673 397.182 712.063 406.864 713.917 419.567C696.511 422.691 682.984 421.455 674.642 415.824C674.607 415.79 674.505 415.756 674.47 415.756C665.922 409.851 669.904 396.77 680.41 395.637L680.444 395.603ZM647.245 554.834C616.552 553.083 608.828 513.773 617.926 458.636C617.891 458.705 617.96 458.568 617.926 458.636C623.522 465.262 630.113 471.167 637.872 476.695C659.536 492.213 685.8 493.998 716.424 492.796C717.969 492.762 719.616 492.659 721.23 492.556C711.274 521.875 689.061 557.306 647.245 554.834ZM1624.09 303.903C1624.91 231.36 1636.03 171.142 1655.81 136.467C1670.3 110.958 1685.1 105.808 1699.07 105.808C1700.82 105.808 1702.57 105.877 1704.32 106.049C1705.63 106.117 1706.76 106.255 1707.65 106.426C1708.72 119.163 1705.35 169.425 1624.09 303.868V303.903Z" fill="#3366FF"/>
<path d="M519.358 74.739C489.318 38.1413 446.3 18.8125 395.009 18.8125C281.885 18.8125 195.095 114.667 136.696 303.835C105.626 311.903 72.9077 323.095 38.5759 337.411C6.613 350.767 -8.45866 387.467 4.82775 419.396C18.1828 451.393 54.8835 466.43 86.8121 453.144C91.5155 451.187 96.3563 449.23 101.266 447.308C81.9026 546.355 75.5169 625.49 75.2079 629.884C72.4957 664.388 98.2102 694.531 132.714 697.277C134.396 697.449 136.078 697.483 137.726 697.483C170.101 697.483 197.601 672.558 200.21 639.737C200.279 638.536 209.136 530.493 236.842 413.594C271.723 411.637 304.132 417.199 328.817 435.188C387.387 477.829 392.331 582.781 389.275 619.585C386.323 653.985 411.728 684.369 446.197 687.39C448.12 687.561 449.974 687.664 451.862 687.664C483.928 687.664 511.29 663.117 514.243 630.536C514.346 629.541 524.989 561.461 532.164 524.863C568.624 340.261 595.129 166.886 519.358 74.7047V74.739ZM274.367 288.763C309.9 195.862 352.368 144.192 395.009 144.192C414.131 144.192 419.59 150.784 422.474 154.389C430.233 163.761 447.536 195.93 441.391 290.789C439.88 313.791 437.237 337.617 433.872 361.444C424.397 351.419 414.131 342.355 403.18 334.287C366.753 307.612 323.736 292.403 274.367 288.763Z" fill="#3366FF"/>
<path d="M234.398 867.788V763.351H274.703C275.733 763.351 276.866 763.385 278.136 763.454C279.407 763.522 280.711 763.694 282.016 763.934C287.475 764.758 292.109 766.646 295.92 769.633C299.731 772.62 302.581 776.328 304.537 780.825C306.494 785.323 307.49 790.301 307.49 795.76C307.49 803.656 305.396 810.488 301.242 816.29C297.087 822.092 291.148 825.731 283.389 827.242L279.681 828.1H245.006V867.754H234.363L234.398 867.788ZM245.075 817.972H274.428C275.287 817.972 276.317 817.938 277.484 817.835C278.651 817.732 279.784 817.56 280.883 817.32C284.453 816.565 287.406 815.089 289.706 812.891C292.006 810.728 293.723 808.119 294.856 805.132C295.989 802.146 296.572 799.021 296.572 795.794C296.572 792.567 295.989 789.408 294.856 786.422C293.723 783.4 292.006 780.791 289.706 778.628C287.406 776.465 284.488 774.989 280.883 774.199C279.784 773.959 278.651 773.787 277.484 773.719C276.317 773.65 275.321 773.616 274.428 773.616H245.075V818.007V817.972ZM297.637 867.788L277.038 825.285L287.269 821.371L309.893 867.788H297.637Z" fill="#3366FF"/>
<path d="M318.613 867.788L354.593 763.351H368.737L404.717 867.788H393.628L359.468 769.324H363.691L329.737 867.788H318.647H318.613ZM334.612 842.485V832.461H388.581V842.485H334.612Z" fill="#3366FF"/>
<path d="M451.101 869.951C443.788 869.951 437.231 868.715 431.429 866.278C425.592 863.84 420.786 860.373 417.009 855.875C413.198 851.378 410.726 846.022 409.594 839.842L420.477 838.023C422.228 844.786 425.901 850.107 431.497 853.952C437.093 857.798 443.788 859.72 451.581 859.72C456.697 859.72 461.297 858.896 465.348 857.283C469.4 855.669 472.592 853.369 474.927 850.348C477.261 847.326 478.394 843.79 478.394 839.705C478.394 836.993 477.914 834.692 476.952 832.77C475.991 830.847 474.721 829.268 473.107 828.032C471.494 826.762 469.777 825.732 467.889 824.873C466.001 824.015 464.181 823.329 462.396 822.814L435.926 814.917C432.733 813.99 429.781 812.823 427.068 811.415C424.356 810.008 421.987 808.257 419.996 806.266C418.005 804.274 416.426 801.906 415.327 799.193C414.228 796.481 413.645 793.391 413.645 789.924C413.645 784.019 415.19 778.938 418.279 774.612C421.369 770.32 425.592 766.99 430.982 764.69C436.338 762.355 442.449 761.222 449.315 761.291C456.285 761.291 462.499 762.527 467.992 764.999C473.485 767.471 478.017 770.973 481.587 775.539C485.158 780.105 487.527 785.495 488.694 791.743L477.536 793.769C476.815 789.237 475.133 785.289 472.524 781.959C469.914 778.629 466.584 776.054 462.567 774.234C458.516 772.414 454.088 771.488 449.247 771.453C444.543 771.453 440.389 772.243 436.75 773.822C433.111 775.401 430.227 777.53 428.098 780.242C425.97 782.954 424.905 786.044 424.905 789.512C424.905 792.979 425.867 795.863 427.824 797.992C429.781 800.12 432.184 801.803 435.068 803.004C437.952 804.206 440.732 805.201 443.445 805.991L463.906 811.999C466.035 812.583 468.541 813.407 471.425 814.505C474.309 815.604 477.09 817.149 479.836 819.14C482.549 821.131 484.814 823.775 486.6 827.002C488.385 830.229 489.278 834.349 489.278 839.327C489.278 844.305 488.316 848.494 486.428 852.305C484.54 856.115 481.828 859.343 478.394 861.952C474.927 864.561 470.91 866.552 466.275 867.926C461.675 869.299 456.628 869.985 451.169 869.985L451.101 869.951Z" fill="#3366FF"/>
<path d="M504.246 867.788V763.351H569.511V773.581H514.889V809.699H560.79V819.929H514.889V857.557H569.511V867.788H504.246Z" fill="#3366FF"/>
<path d="M694.753 867.788H683.664L649.813 769.324H653.933L619.773 867.788H608.684L644.663 763.351H658.808L694.788 867.788H694.753ZM678.72 842.485H624.785V832.46H678.72V842.485ZM646.174 751.025L637.488 728.538H646.62L655.306 751.025H646.174Z" fill="#3366FF"/>
<path d="M736.809 867.788V763.351H768.497C769.596 763.351 771.519 763.351 774.196 763.419C776.874 763.454 779.449 763.66 781.921 764.003C789.852 765.102 796.478 768.054 801.799 772.861C807.121 777.633 811.103 783.744 813.747 791.125C816.39 798.506 817.729 806.677 817.729 815.569C817.729 824.461 816.39 832.598 813.747 840.013C811.103 847.395 807.086 853.506 801.799 858.278C796.478 863.05 789.852 866.003 781.921 867.136C779.518 867.41 776.909 867.616 774.162 867.685C771.416 867.754 769.527 867.788 768.497 867.788H736.809ZM747.83 857.557H768.497C770.489 857.557 772.617 857.488 774.917 857.385C777.218 857.282 779.175 857.042 780.822 856.699C786.899 855.634 791.843 853.163 795.585 849.317C799.327 845.438 802.074 840.597 803.825 834.761C805.576 828.924 806.434 822.539 806.434 815.569C806.434 808.6 805.576 802.146 803.825 796.275C802.074 790.438 799.327 785.598 795.551 781.787C791.774 777.976 786.865 775.538 780.822 774.474C779.175 774.131 777.183 773.89 774.849 773.787C772.514 773.684 770.386 773.616 768.497 773.616H747.83V857.591V857.557Z" fill="#3366FF"/>
<path d="M834.208 867.788V763.351H899.472V773.581H844.85V809.699H890.752V819.929H844.85V857.557H899.472V867.788H834.208Z" fill="#3366FF"/>
<path d="M916.879 867.788V763.351H927.625L985.131 848.905V763.351H995.877V867.788H985.131L927.625 782.13V867.788H916.879Z" fill="#3366FF"/>
<path d="M1043.91 867.788V773.581H1007.45V763.351H1091.05V773.581H1054.59V867.788H1043.94H1043.91Z" fill="#3366FF"/>
<path d="M1138.9 869.951C1131.59 869.951 1125.03 868.715 1119.23 866.278C1113.4 863.84 1108.59 860.373 1104.81 855.875C1101 851.378 1098.53 846.022 1097.4 839.842L1108.28 838.023C1110.03 844.786 1113.7 850.107 1119.3 853.952C1124.9 857.798 1131.59 859.72 1139.38 859.72C1144.5 859.72 1149.1 858.896 1153.15 857.283C1157.2 855.669 1160.4 853.369 1162.73 850.348C1165.06 847.326 1166.2 843.79 1166.2 839.705C1166.2 836.993 1165.72 834.692 1164.76 832.77C1163.79 830.847 1162.52 829.268 1160.91 828.032C1159.3 826.762 1157.58 825.732 1155.69 824.873C1153.8 824.015 1151.98 823.329 1150.2 822.814L1123.73 814.917C1120.54 813.99 1117.58 812.823 1114.87 811.415C1112.16 810.008 1109.79 808.257 1107.8 806.266C1105.81 804.274 1104.23 801.906 1103.13 799.193C1102.03 796.481 1101.45 793.391 1101.45 789.924C1101.45 784.019 1102.99 778.938 1106.08 774.612C1109.17 770.32 1113.4 766.99 1118.79 764.69C1124.14 762.355 1130.25 761.222 1137.12 761.291C1144.09 761.291 1150.3 762.527 1155.8 764.999C1161.29 767.471 1165.82 770.973 1169.39 775.539C1172.96 780.105 1175.33 785.495 1176.5 791.743L1165.34 793.769C1164.62 789.237 1162.94 785.289 1160.33 781.959C1157.72 778.629 1154.39 776.054 1150.37 774.234C1146.32 772.414 1141.89 771.488 1137.05 771.453C1132.35 771.453 1128.19 772.243 1124.55 773.822C1120.91 775.401 1118.03 777.53 1115.9 780.242C1113.77 782.954 1112.71 786.044 1112.71 789.512C1112.71 792.979 1113.67 795.863 1115.63 797.992C1117.58 800.12 1119.99 801.803 1122.87 803.004C1125.75 804.206 1128.54 805.201 1131.25 805.991L1151.71 811.999C1153.84 812.583 1156.34 813.407 1159.23 814.505C1162.11 815.604 1164.89 817.149 1167.64 819.14C1170.35 821.131 1172.62 823.775 1174.4 827.002C1176.19 830.229 1177.08 834.349 1177.08 839.327C1177.08 844.305 1176.12 848.494 1174.23 852.305C1172.34 856.115 1169.63 859.343 1166.2 861.952C1162.73 864.561 1158.71 866.552 1154.08 867.926C1149.48 869.299 1144.43 869.985 1138.97 869.985L1138.9 869.951Z" fill="#3366FF"/>
<path d="M1269.16 858.518C1261.78 858.518 1254.81 857.145 1248.28 854.364C1241.76 851.583 1236.03 847.704 1231.08 842.76C1226.14 837.816 1222.29 832.083 1219.48 825.56C1216.66 819.071 1215.26 812.067 1215.26 804.652C1215.26 797.236 1216.66 790.232 1219.48 783.709C1222.29 777.186 1226.14 771.453 1231.08 766.509C1236.03 761.565 1241.73 757.72 1248.28 754.939C1254.81 752.158 1261.78 750.785 1269.16 750.785C1276.54 750.785 1283.65 752.158 1290.13 754.939C1296.62 757.72 1302.36 761.565 1307.3 766.509C1312.24 771.453 1316.09 777.152 1318.9 783.709C1321.72 790.232 1323.13 797.236 1323.13 804.652C1323.13 812.067 1321.72 819.071 1318.9 825.594C1316.09 832.117 1312.24 837.851 1307.3 842.794C1302.36 847.738 1296.66 851.583 1290.13 854.364C1283.61 857.145 1276.64 858.518 1269.16 858.518ZM1269.16 848.15C1275.13 848.15 1280.76 847.017 1286.01 844.786C1291.27 842.554 1295.87 839.43 1299.85 835.447C1303.83 831.465 1306.96 826.83 1309.19 821.509C1311.45 816.222 1312.55 810.557 1312.55 804.583C1312.55 798.609 1311.42 792.979 1309.19 787.726C1306.96 782.473 1303.83 777.873 1299.85 773.89C1295.87 769.908 1291.27 766.784 1286.05 764.552C1280.83 762.321 1275.2 761.188 1269.16 761.188C1263.11 761.188 1257.45 762.321 1252.2 764.552C1246.91 766.784 1242.31 769.908 1238.29 773.89C1234.31 777.873 1231.19 782.473 1228.95 787.692C1226.72 792.91 1225.59 798.541 1225.59 804.583C1225.59 810.626 1226.72 816.29 1228.95 821.543C1231.19 826.83 1234.31 831.431 1238.29 835.447C1242.28 839.43 1246.91 842.554 1252.23 844.786C1257.52 847.017 1263.18 848.15 1269.16 848.15ZM1269.81 835.173C1265.42 835.173 1261.47 834.417 1258 832.941C1254.53 831.465 1251.48 829.062 1248.87 825.766C1246.36 822.573 1244.61 819.14 1243.68 815.466C1242.76 811.793 1242.28 808.119 1242.28 804.446C1242.31 800.669 1242.82 796.961 1243.82 793.357C1244.82 789.752 1246.5 786.422 1248.87 783.435C1251.48 780.208 1254.53 777.804 1258.07 776.259C1261.6 774.714 1265.66 773.925 1270.26 773.925C1272.87 773.925 1275.34 774.199 1277.64 774.749C1279.97 775.298 1282.24 776.259 1284.54 777.598C1286.87 779.04 1288.9 780.86 1290.72 783.023C1292.5 785.186 1293.77 787.726 1294.56 790.576L1285.64 793.254C1285.05 791.743 1284.23 790.301 1283.16 788.893C1282.1 787.486 1280.86 786.284 1279.46 785.254C1278.12 784.293 1276.61 783.572 1274.92 783.126C1273.24 782.679 1271.59 782.439 1269.88 782.439C1267.06 782.439 1264.52 782.988 1262.19 784.156C1259.85 785.289 1257.9 786.868 1256.25 788.893C1254.6 791.022 1253.47 793.46 1252.85 796.172C1252.23 798.884 1251.92 801.631 1251.92 804.343C1251.92 807.295 1252.27 810.145 1252.99 812.891C1253.67 815.638 1254.77 818.041 1256.28 820.067C1257.83 822.195 1259.78 823.809 1262.12 824.942C1264.45 826.04 1267.06 826.624 1269.91 826.624C1273.69 826.624 1276.92 825.697 1279.63 823.878C1281.04 822.848 1282.2 821.715 1283.1 820.479C1283.99 819.243 1284.78 817.835 1285.43 816.256L1294.56 818.728C1293.5 821.474 1292.13 823.878 1290.51 825.903C1288.86 827.929 1287.15 829.577 1285.36 830.847C1283.2 832.289 1280.86 833.387 1278.36 834.108C1275.85 834.829 1273.04 835.207 1269.84 835.207L1269.81 835.173Z" fill="#3366FF"/>
<path d="M1363.71 867.72L1363.78 858.004L1410.98 815.364C1415.03 811.69 1417.75 808.189 1419.05 804.893C1420.39 801.597 1421.04 798.129 1421.04 794.49C1421.04 790.199 1420.01 786.285 1417.99 782.817C1415.96 779.35 1413.21 776.569 1409.78 774.509C1406.35 772.449 1402.5 771.419 1398.25 771.419C1393.99 771.419 1389.83 772.483 1386.37 774.612C1382.9 776.741 1380.15 779.556 1378.13 783.023C1376.14 786.491 1375.14 790.302 1375.17 794.421H1364.29C1364.29 788.104 1365.8 782.405 1368.79 777.393C1371.78 772.38 1375.86 768.398 1380.98 765.548C1386.09 762.699 1391.89 761.223 1398.38 761.223C1404.87 761.223 1410.4 762.699 1415.45 765.686C1420.49 768.673 1424.47 772.655 1427.39 777.736C1430.31 782.783 1431.79 788.413 1431.79 794.593C1431.79 798.953 1431.27 802.764 1430.24 806.094C1429.21 809.424 1427.6 812.48 1425.37 815.295C1423.14 818.11 1420.39 821.029 1416.99 824.05L1375.07 861.918L1373.39 857.558H1431.75V867.789H1363.57L1363.71 867.72Z" fill="#3366FF"/>
<path d="M1483.35 869.951C1476.93 869.951 1471.13 868.44 1465.98 865.453C1460.83 862.466 1456.75 858.381 1453.76 853.231C1450.77 848.081 1449.26 842.279 1449.26 835.859V795.245C1449.26 788.825 1450.77 783.023 1453.76 777.873C1456.75 772.723 1460.83 768.638 1465.98 765.651C1471.13 762.664 1476.93 761.153 1483.35 761.153C1489.77 761.153 1495.58 762.664 1500.73 765.651C1505.88 768.638 1509.96 772.723 1512.95 777.873C1515.94 783.023 1517.45 788.825 1517.45 795.245V835.859C1517.45 842.279 1515.94 848.081 1512.95 853.231C1509.96 858.381 1505.88 862.466 1500.73 865.453C1495.58 868.44 1489.77 869.951 1483.35 869.951ZM1483.35 859.651C1487.65 859.651 1491.56 858.587 1495.1 856.493C1498.63 854.398 1501.41 851.583 1503.51 848.047C1505.57 844.511 1506.63 840.631 1506.63 836.374V794.764C1506.63 790.473 1505.6 786.559 1503.51 783.023C1501.41 779.487 1498.63 776.671 1495.1 774.577C1491.56 772.483 1487.65 771.419 1483.35 771.419C1479.06 771.419 1475.15 772.483 1471.61 774.577C1468.08 776.671 1465.26 779.487 1463.2 783.023C1461.11 786.559 1460.08 790.473 1460.08 794.764V836.374C1460.08 840.631 1461.11 844.511 1463.2 848.047C1465.26 851.583 1468.08 854.398 1471.61 856.493C1475.15 858.587 1479.06 859.651 1483.35 859.651Z" fill="#3366FF"/>
<path d="M1534.85 867.72L1534.92 858.004L1582.13 815.364C1586.18 811.69 1588.89 808.189 1590.19 804.893C1591.53 801.597 1592.19 798.129 1592.19 794.49C1592.19 790.199 1591.16 786.285 1589.13 782.817C1587.1 779.35 1584.36 776.569 1580.92 774.509C1577.49 772.449 1573.65 771.419 1569.39 771.419C1565.13 771.419 1560.98 772.483 1557.51 774.612C1554.04 776.741 1551.3 779.556 1549.27 783.023C1547.28 786.491 1546.28 790.302 1546.32 794.421H1535.44C1535.44 788.104 1536.95 782.405 1539.93 777.393C1542.92 772.38 1547 768.398 1552.12 765.548C1557.24 762.665 1563.04 761.223 1569.53 761.223C1576.02 761.223 1581.54 762.699 1586.59 765.686C1591.64 768.673 1595.62 772.655 1598.54 777.736C1601.46 782.783 1602.93 788.413 1602.93 794.593C1602.93 798.953 1602.42 802.764 1601.39 806.094C1600.36 809.424 1598.74 812.48 1596.51 815.295C1594.28 818.11 1591.53 821.029 1588.13 824.05L1546.22 861.918L1544.53 857.558H1602.9V867.789H1534.71L1534.85 867.72Z" fill="#3366FF"/>
<path d="M1663.49 867.788V847.566H1614.6V837.404L1649.55 763.351H1661.54L1626.59 837.404H1663.49V806.952H1674.24V837.404H1685.64V847.566H1674.24V867.788H1663.49Z" fill="#3366FF"/>
</svg>
