<svg width="170" height="62" viewBox="0 0 170 62" fill="none" xmlns="http://www.w3.org/2000/svg">
<path d="M167.112 32.787C165.902 31.3553 163.683 29.6439 159.96 29.6439C153.336 29.6439 148.743 36.4622 145.28 42.6907C145.238 42.4688 145.189 42.2438 145.147 42.0128C146.609 39.8971 148.144 37.6051 149.658 35.2371C159.16 20.3482 162.267 11.1315 159.741 5.35896C158.944 3.54117 156.832 0.434495 151.609 0.0423609C146.402 -0.349773 141.906 1.99087 138.948 6.63568C136.52 10.4628 133.787 17.9893 134.556 32.17C134.693 34.7568 134.942 37.3133 135.282 39.7421C134.647 42.9278 130.863 45.846 130.863 45.846C128.881 47.7702 123.385 47.9374 122.458 44.016C121.22 37.5504 125.95 35.3465 127.491 35.149C135.659 35.149 135.216 25.5827 128.887 25.5827C128.504 25.5432 128.115 25.525 127.735 25.525C124.564 25.525 121.381 26.8838 118.81 29.1241C116.241 31.3675 114.29 34.4924 113.581 38.0246C113.18 40.0218 112.873 42.253 112.818 44.4659C110.59 46.685 109.01 47.5696 108.271 47.8401C108.171 47.6152 108.107 47.3446 108.092 47.0558C107.797 40.9702 108.636 35.0243 109.94 29.7199C110.073 29.5041 110.195 29.2822 110.295 29.0511C111.973 27.3884 118.354 23.6433 123.199 23.8531C125.85 23.9686 128.093 21.9137 128.206 19.263C128.321 16.6123 126.266 14.3689 123.616 14.2504C120.631 14.1227 117.591 14.7246 114.773 15.6912C116.57 11.6544 118.032 9.2043 118.071 9.13743C118.545 8.35924 118.77 7.49594 118.77 6.6448C118.77 5.02155 117.95 3.44085 116.463 2.53499C114.192 1.15797 111.238 1.87536 109.858 4.14305C109.469 4.78748 102.365 16.6184 99.5527 32.2794C98.1848 23.4245 86.1898 24.2847 87.9924 35.2675C88.0532 36.5381 88.8618 39.9914 88.5517 43.0281C87.9285 49.132 81.2319 52.2539 81.6453 41.5295C81.6666 40.8851 82.2259 37.5474 84.5149 35.6992C89.187 31.717 84.6456 24.3425 78.031 27.6285C74.751 29.4858 73.1825 32.4952 72.1642 35.8664C71.997 35.9332 71.8359 35.994 71.6869 36.0518C71.8115 27.0722 66.343 25.6709 62.6374 25.4399C62.2301 25.4155 61.8228 25.4064 61.4154 25.4216C54.7279 25.677 48.1893 31.3705 46.9582 38.4806C46.6208 40.4473 46.3806 42.6299 46.3958 44.7942C46.3837 44.8094 46.3745 44.8277 46.3624 44.8459C46.0888 45.2745 46.183 52.3299 50.1834 55.1599C51.6395 56.3485 53.5971 57.1084 56.1961 57.2209C56.4971 57.2331 56.795 57.2361 57.0868 57.224C66.3764 57.224 69.2064 50.0592 70.6959 43.2895H70.699C70.1457 49.9102 71.9362 56.8349 81.2835 57.5067C81.624 57.531 81.9645 57.5462 82.2988 57.5462C92.47 57.5462 96.3579 50.7401 98.4219 44.016C98.4098 45.1772 98.428 46.3415 98.4888 47.5149C98.5982 49.743 99.3035 51.8466 100.532 53.5944C102.605 56.5491 105.255 57.3547 107.116 57.5127C107.368 57.534 107.62 57.5462 107.876 57.5462C110.356 57.5462 113.001 56.54 115.776 54.5489C117.129 55.9351 119.029 56.8744 121.649 57.0963C126.741 57.5462 130.121 56.4822 132.589 55.6037C133.927 54.9715 135.064 54.3118 135.985 53.6522C136.909 52.9895 137.62 52.3299 138.106 51.6915C138.413 52.4667 138.73 53.1476 139.055 53.7252C140.821 56.8561 143.086 57.4793 144.678 57.4398C147.633 57.3729 149.171 54.9046 149.828 53.8528C150.451 52.8588 151.12 51.6064 151.895 50.1534C153.214 47.6729 154.865 44.5845 156.634 42.1952C158.817 39.2405 159.96 39.0125 159.96 39.0095H160.051C160.419 39.8029 161.437 43.247 159.409 54.9624C158.966 57.5127 160.68 59.9385 163.227 60.3762C163.498 60.4188 163.765 60.4461 164.03 60.4461C166.267 60.4461 168.249 58.835 168.641 56.5552C170.848 43.7911 170.389 36.678 167.109 32.781L167.112 32.787ZM60.2482 35.0274C60.6677 34.9787 61.0963 34.9879 61.5279 35.0578C62.5706 35.1672 63.0478 36.0244 63.212 37.1491C61.6708 37.4258 60.4731 37.3163 59.7344 36.8178C59.7314 36.8148 59.7223 36.8117 59.7192 36.8117C58.9623 36.2889 59.3149 35.1307 60.2451 35.0304L60.2482 35.0274ZM57.3087 49.1259C54.5911 48.9709 53.9071 45.4903 54.7127 40.6084C54.7157 40.6024 54.7097 40.6145 54.7127 40.6084C55.2082 41.1951 55.7918 41.718 56.4788 42.2074C58.3969 43.5814 60.7224 43.7394 63.4339 43.633C63.5707 43.63 63.7166 43.6209 63.8594 43.6118C62.9779 46.2077 61.0111 49.3448 57.3087 49.1259ZM143.8 26.9081C143.873 20.485 144.858 15.1532 146.609 12.083C147.892 9.82442 149.202 9.36845 150.439 9.36845C150.594 9.36845 150.749 9.37453 150.904 9.38973C151.02 9.39581 151.12 9.40797 151.199 9.42317C151.293 10.5509 150.995 15.0012 143.8 26.905V26.9081Z" fill="white"/>
<path d="M45.9849 6.61742C43.3251 3.37699 39.5162 1.66559 34.9747 1.66559C24.9586 1.66559 17.274 10.1527 12.1033 26.902C9.3523 27.6163 6.45537 28.6073 3.41558 29.8749C0.585526 31.0574 -0.748944 34.3069 0.427457 37.1339C1.60994 39.967 4.85948 41.2984 7.68649 40.122C8.10294 39.9488 8.53155 39.7755 8.96624 39.6053C7.2518 48.3751 6.6864 55.3818 6.65904 55.7709C6.41889 58.8259 8.6957 61.4948 11.7507 61.738C11.8996 61.7532 12.0486 61.7563 12.1945 61.7563C15.061 61.7563 17.4959 59.5494 17.7269 56.6433C17.733 56.5369 18.5173 46.9707 20.9704 36.6202C24.0588 36.4469 26.9284 36.9394 29.114 38.5322C34.2999 42.3077 34.7376 51.6003 34.4671 54.859C34.2057 57.9049 36.4551 60.5951 39.5071 60.8626C39.6773 60.8778 39.8414 60.8869 40.0086 60.8869C42.8478 60.8869 45.2705 58.7134 45.5319 55.8287C45.5411 55.7405 46.4834 49.7126 47.1187 46.4722C50.347 30.1272 52.6937 14.7762 45.9849 6.61438V6.61742ZM24.2929 25.5675C27.4391 17.3418 31.1993 12.7669 34.9747 12.7669C36.6679 12.7669 37.1512 13.3506 37.4066 13.6697C38.0936 14.4996 39.6256 17.3479 39.0815 25.7469C38.9478 27.7835 38.7137 29.8931 38.4158 32.0027C37.5768 31.1151 36.6679 30.3126 35.6982 29.5983C32.473 27.2364 28.6641 25.8897 24.2929 25.5675Z" fill="white"/>
</svg>