<svg width="325" height="99" viewBox="0 0 325 99" fill="none" xmlns="http://www.w3.org/2000/svg">
<path d="M275.431 99L49.569 99C36.3812 99 23.9505 93.8362 14.5594 84.4605C5.16819 75.0849 0 62.6685 0 49.5013C0 36.3341 5.17083 23.9152 14.5594 14.5395C23.9479 5.16377 36.3812 0 49.569 0L275.434 0C288.621 0 301.052 5.16377 310.443 14.5395C319.832 23.9152 325.003 36.3315 325.003 49.5013C325.003 62.6712 319.832 75.0849 310.443 84.4632C301.055 93.8415 288.621 99.0027 275.434 99.0027L275.431 99ZM49.569 2.64402C37.0907 2.64402 25.322 7.53281 16.4339 16.4088C7.54576 25.2848 2.64764 37.0374 2.64764 49.5013C2.64764 61.9652 7.54312 73.7153 16.4312 82.5912C25.3193 91.4672 37.0881 96.356 49.5664 96.356L275.431 96.356C287.909 96.356 299.678 91.4672 308.566 82.5912C317.454 73.7153 322.35 61.9626 322.35 49.5013C322.35 37.0401 317.454 25.2874 308.566 16.4114C299.678 7.53545 287.909 2.64666 275.431 2.64666L49.569 2.64666V2.64402Z" fill="white"/>
</svg>
