<svg width="1660" height="698" viewBox="0 0 1660 698" fill="none" xmlns="http://www.w3.org/2000/svg">
<path d="M727.735 0.0987841C723.77 0.243804 720.152 0.318633 716.678 0.318633L336.855 0.31865C334.134 0.31865 331.646 1.33849 329.762 3.00853L282.054 3.00853C277.696 3.00853 274.147 6.62468 274.147 11.0736L274.147 40.2883L14.8914 40.2883L-2.82444e-05 51.8385L-2.49532e-05 127.132L236.556 127.132L274.147 61.7421L274.147 88.7674C274.147 93.2115 277.691 96.8324 282.054 96.8324L329.505 96.8324C331.417 98.6476 334.008 99.7609 336.855 99.7609L510.923 99.789L638.073 99.789C638.592 99.789 689.794 99.7609 690.556 99.7609C706.808 99.7375 718.052 100.308 725.963 108.214C735.665 117.903 739.99 138.697 739.99 175.635L739.99 212.742C737.124 214.36 735.183 217.429 735.183 220.952L735.183 477.04C735.183 480.558 737.128 483.631 739.99 485.245L739.99 522.352C739.99 559.29 735.665 580.084 725.963 589.773C718.052 597.679 706.808 598.249 690.551 598.226C689.78 598.226 638.069 598.198 638.069 598.198L510.919 598.198L336.85 598.226C334.003 598.226 331.413 599.344 329.5 601.155L282.058 601.155C277.696 601.155 274.147 604.771 274.147 609.22L274.147 628.835C273.226 628.442 272.207 628.222 271.146 628.222L181.409 628.222C178.506 628.222 175.672 628.788 172.993 629.906L154.403 637.653C154.123 624.007 153.735 603.671 153.473 592.088C153.351 588.098 151.224 584.159 147.727 582.147C146.249 581.254 144.772 581.011 143.383 581.231C143.355 581.226 143.322 581.216 143.294 581.207C141.027 580.866 138.829 581.984 137.221 583.476C135.178 585.319 133.878 587.883 133.41 590.582C133.167 588.954 132.662 587.368 131.783 585.96C130.353 583.691 128.188 581.474 125.387 581.179C123.209 580.936 121.137 582.054 119.594 583.476C117.551 585.319 116.251 587.883 115.784 590.582C115.541 588.954 115.036 587.368 114.157 585.96C112.726 583.691 110.561 581.474 107.761 581.179C105.582 580.936 103.511 582.054 101.968 583.476C99.9246 585.319 98.6248 587.883 98.1572 590.582C97.9141 588.954 97.4092 587.368 96.5302 585.96C95.0995 583.691 92.9347 581.474 90.1341 581.179C87.9553 580.936 85.8841 582.054 84.3412 583.476C82.298 585.319 80.9982 587.883 80.5306 590.582C80.2875 588.954 79.7825 587.368 78.9036 585.96C77.4729 583.691 75.3081 581.474 72.5075 581.179C70.3287 580.936 68.2575 582.054 66.7146 583.476C64.6854 585.31 63.3856 587.855 62.9134 590.535C62.8713 590.226 62.8152 589.918 62.7404 589.618C61.9035 585.941 59.0561 581.928 55.1568 581.207C52.8891 580.866 50.6917 581.984 49.0833 583.476C47.0401 585.319 45.7403 587.883 45.2728 590.582C45.0296 588.954 44.5247 587.368 43.6457 585.96C42.215 583.691 40.0502 581.474 37.2496 581.179C35.0708 580.936 32.9996 582.054 31.4567 583.476C29.5631 585.188 28.3054 587.518 27.7584 589.997C27.5901 588.032 27.0711 586.091 26.0144 584.402C24.5837 582.133 22.419 579.916 19.6183 579.621C17.4396 579.378 15.3683 580.496 13.8254 581.918C11.2866 584.21 9.88866 587.611 9.8232 591.003C9.538 604.443 9.09383 628.924 8.79927 642.621L13.4748 642.621C13.2831 632.9 12.7828 607.802 12.5958 598.385L12.4508 591.017C12.4087 588.823 13.0446 586.601 14.3163 584.814C15.5741 583.064 17.5237 581.525 19.4454 581.661C23.0455 582.045 25.9303 586.559 26.2295 590.133C26.4118 592.743 26.7859 598.46 27.1973 604.789C26.9542 617.266 26.669 632.428 26.4539 642.626L7.68183 642.626C3.44583 642.626 -2.2696e-06 646.074 -2.08434e-06 650.312L-6.76454e-07 682.521C-4.91189e-07 686.759 3.44584 690.202 7.68183 690.202L150.78 690.202C152.15 690.202 153.501 689.832 154.684 689.135L180.357 673.969C182.213 672.874 184.336 672.294 186.491 672.294L271.15 672.294C272.216 672.294 273.231 672.074 274.152 671.681L274.152 686.923C274.152 691.367 277.701 694.988 282.063 694.988L329.762 694.988C331.647 696.663 334.134 697.678 336.855 697.678L716.678 697.678C720.161 697.678 723.78 697.748 727.735 697.893C735.029 698.164 749.715 698.127 766.093 694.866C786.749 690.749 803.17 682.928 814.901 671.611C828.735 658.269 835.753 640.259 835.753 618.08L835.753 486.438C840.747 486.209 844.739 482.088 844.739 477.04L844.739 413.596C844.739 410.981 846.867 408.852 849.48 408.852L909.719 408.852C917.911 408.852 924.868 403.439 927.201 396.001L1078.11 396.001C1080.81 401.947 1086.79 406.092 1093.73 406.092L1560.02 406.092C1565.64 406.092 1570.66 403.505 1573.96 399.463C1578.02 399.664 1587.53 399.912 1598.9 398.64C1619.04 396.39 1634.56 390.682 1645.02 381.663C1654.09 373.846 1659.11 363.643 1659.93 351.335C1659.98 350.563 1660 349.796 1660 349.038C1660 348.13 1659.97 347.237 1659.95 346.357C1659.92 345.408 1659.89 344.514 1659.9 343.616C1659.95 334.11 1658.73 323.145 1649.37 313.835C1636.59 301.125 1612.21 295.109 1574.85 295.446C1571.61 290.725 1566.17 287.619 1560.02 287.619L1093.3 287.619C1086.44 287.619 1080.53 291.778 1077.95 297.71L927.252 297.71C925.167 291.282 919.127 286.618 912.015 286.618L847.568 286.618C844.955 286.618 842.827 284.49 842.827 281.874L842.827 220.952C842.827 216.564 839.812 212.882 835.749 211.834L835.749 79.9071C835.749 57.7235 828.735 39.7129 814.896 26.3756C787.549 0.00515356 741.262 -0.406466 727.726 0.0940844L727.735 0.0987841ZM729.269 593.089C740.06 582.306 744.665 561.157 744.665 522.357L744.665 486.462L765.953 486.462L765.953 573.179C765.953 573.31 765.597 586.62 757.088 599.915C752.095 607.718 745.306 613.972 736.909 618.506C726.361 624.203 713.218 627.193 697.854 627.394C633.608 628.241 359.157 627.483 330.875 627.399L330.875 608.799C330.875 605.552 333.559 602.909 336.855 602.909L510.924 602.881L638.073 602.881C638.073 602.881 689.784 602.909 690.551 602.909C707.439 602.937 720.105 602.244 729.269 593.089ZM326.63 605.842C326.354 606.782 326.2 607.774 326.2 608.803L326.2 687.11C326.2 688.223 326.377 689.299 326.7 690.31L289.198 690.31L289.198 605.842L326.625 605.842L326.63 605.842ZM143.014 642.406C142.645 642.56 142.256 642.635 141.859 642.635L136.842 642.635C136.669 633.798 136.319 616.298 136.108 605.515C136.492 599.812 136.824 594.862 136.945 593.071C137.001 590.802 137.492 588.566 138.82 586.704C139.979 585.113 141.621 583.616 143.341 583.294C145.109 583.63 146.782 585.23 147.932 586.905C149.26 588.851 149.705 591.176 149.765 593.511C149.887 595.354 150.205 600.224 150.574 605.879C150.368 615.919 150.065 630.907 149.887 639.543L143.019 642.406L143.014 642.406ZM125.219 583.233C128.819 583.616 131.704 588.131 132.003 591.705C132.181 594.264 132.545 599.812 132.948 606.001C132.709 618.239 132.438 632.764 132.228 642.64L119.211 642.64C119.001 632.03 118.542 608.911 118.365 599.957L118.22 592.589C118.178 590.395 118.814 588.173 120.085 586.386C121.343 584.636 123.293 583.097 125.214 583.233L125.219 583.233ZM107.592 583.233C111.192 583.616 114.077 588.131 114.377 591.705C114.554 594.264 114.919 599.812 115.321 606.001C115.083 618.239 114.811 632.764 114.601 642.64L101.584 642.64C101.374 632.03 100.916 608.911 100.738 599.957L100.593 592.589C100.551 590.395 101.187 588.173 102.459 586.386C103.716 584.636 105.666 583.097 107.588 583.233L107.592 583.233ZM89.9611 583.233C93.5612 583.616 96.446 588.131 96.7452 591.705C96.9229 594.264 97.2876 599.812 97.6897 606.001C97.4512 618.239 97.1801 632.764 96.9697 642.64L83.9531 642.64C83.7427 632.03 83.2845 608.911 83.1068 599.957L82.9619 592.589C82.9198 590.395 83.5557 588.173 84.8274 586.386C86.0851 584.636 88.0348 583.097 89.9564 583.233L89.9611 583.233ZM72.3345 583.233C75.9346 583.616 78.8194 588.131 79.1186 591.705C79.2963 594.264 79.661 599.812 80.0631 606.001C79.8246 618.239 79.5535 632.764 79.3431 642.64L66.3265 642.64C66.1161 632.03 65.6579 608.911 65.4802 599.957L65.3353 592.589C65.2932 590.395 65.9291 588.173 67.2008 586.386C68.4585 584.636 70.4082 583.097 72.3298 583.233L72.3345 583.233ZM54.7079 583.233C56.6482 583.331 58.5325 585.081 59.7902 586.905C61.118 588.851 61.5622 591.176 61.623 593.511C61.7445 595.372 62.0671 600.312 62.4412 606.034C62.2027 618.262 61.9315 632.774 61.7211 642.635L48.7046 642.635C48.4942 632.025 48.036 608.906 47.8583 599.952L47.7134 592.584C47.6713 590.39 48.3072 588.168 49.5789 586.381C50.8366 584.631 52.7863 583.092 54.7079 583.228L54.7079 583.233ZM30.227 599.952L30.0821 592.584C30.04 590.39 30.6759 588.168 31.9476 586.381C33.2053 584.631 35.155 583.092 37.0766 583.228C40.6768 583.612 43.5615 588.126 43.8608 591.7C44.0384 594.259 44.4031 599.807 44.8052 605.996C44.5668 618.234 44.2956 632.76 44.0852 642.635L31.0686 642.635C30.8582 632.025 30.4 608.906 30.2224 599.952L30.227 599.952ZM271.146 667.621L186.487 667.621C183.494 667.621 180.553 668.426 177.977 669.946L152.304 685.108C151.841 685.379 151.313 685.524 150.775 685.524L7.68183 685.524C6.02671 685.524 4.67549 684.177 4.67549 682.521L4.67549 650.321C4.67549 648.665 6.02203 647.313 7.68183 647.313L141.859 647.313C142.878 647.313 143.874 647.117 144.814 646.724L174.793 634.229C176.902 633.349 179.127 632.905 181.414 632.905L271.15 632.905C272.805 632.905 274.152 634.252 274.152 635.913L274.152 664.613C274.152 666.269 272.805 667.616 271.15 667.616L271.146 667.621ZM278.823 686.923L278.823 609.224C278.823 607.358 280.277 605.837 282.058 605.837L286.86 605.837L286.86 690.31L282.058 690.31C280.272 690.31 278.823 688.789 278.823 686.923ZM811.66 668.248C785.641 693.336 740.976 693.706 727.908 693.224C723.892 693.074 720.222 693.004 716.678 693.004L336.855 693.004C333.559 693.004 330.875 690.361 330.875 687.115L330.875 629.747C359.195 629.827 633.622 630.584 697.882 629.742C713.629 629.536 727.132 626.449 738.017 620.573C746.765 615.848 753.843 609.327 759.056 601.187C767.921 587.34 768.281 573.802 768.291 573.212L768.291 486.471L831.078 486.471L831.078 618.085C831.078 638.944 824.546 655.823 811.66 668.248ZM1646.07 317.157C1650.6 321.662 1655.23 328.286 1655.23 343.256C1655.23 343.368 1655.23 343.485 1655.23 343.597C1655.23 344.575 1655.25 345.553 1655.28 346.498C1655.32 348.07 1655.37 349.557 1655.27 351.026C1654.53 362.029 1650.06 371.142 1641.98 378.112C1622.95 394.518 1588.84 395.197 1576.69 394.874C1577.55 392.778 1578.02 390.486 1578.02 388.086L1578.02 305.635C1578.02 303.712 1577.72 301.859 1577.16 300.119C1611.45 300.058 1634.64 305.784 1646.07 317.157ZM1573.34 305.63L1573.34 388.081C1573.34 394.677 1568.53 400.169 1562.23 401.222L1562.23 292.484C1568.52 293.537 1573.34 299.029 1573.34 305.63ZM1093.3 292.302L1559.89 292.302L1559.89 401.414L1093.72 401.414C1086.85 401.414 1081.25 395.814 1081.25 388.933L1081.25 304.362C1081.25 297.715 1086.65 292.302 1093.3 292.302ZM928.038 302.393L1076.58 302.393L1076.58 391.323L928.038 391.323L928.038 302.393ZM833.415 216.213C836.029 216.213 838.156 218.341 838.156 220.956L838.156 281.879C838.156 287.077 842.383 291.301 847.573 291.301L912.02 291.301C918.276 291.301 923.363 296.391 923.363 302.65L923.363 390.528C923.363 398.055 917.242 404.174 909.724 404.174L849.485 404.174C844.291 404.174 840.069 408.403 840.069 413.596L840.069 477.04C840.069 479.655 837.941 481.784 835.328 481.784L744.604 481.784C741.991 481.784 739.864 479.655 739.864 477.04L739.864 220.952C739.864 218.337 741.991 216.208 744.604 216.208L833.42 216.208L833.415 216.213ZM68.4959 44.9664L145.941 122.454L132.611 122.454L54.0393 44.9664L68.4959 44.9664ZM149.246 122.454L71.8015 44.9664L130.035 44.9664L208.606 122.454L149.242 122.454L149.246 122.454ZM211.94 122.454L133.368 44.9664L147.825 44.9664L225.27 122.454L211.94 122.454ZM4.67546 54.1308L16.4904 44.9664L50.7103 44.9664L129.282 122.454L4.67546 122.454L4.67546 54.1308ZM233.854 122.454L228.575 122.454L151.131 44.9664L274.152 44.9664L274.152 52.3625L233.854 122.459L233.854 122.454ZM278.823 88.7674L278.823 11.0689C278.823 9.20232 280.272 7.68193 282.054 7.68193L326.704 7.68193C326.382 8.69243 326.204 9.76836 326.204 10.8818L326.204 89.1884C326.204 90.2176 326.354 91.2094 326.634 92.1497L282.058 92.1497C280.277 92.1497 278.827 90.6293 278.827 88.7627L278.823 88.7674ZM729.269 104.907C724.855 100.5 719.413 97.7961 712.143 96.3974C705.718 95.1623 698.56 95.0735 690.546 95.0874C689.784 95.0874 638.588 95.1156 638.069 95.1156L510.919 95.1156L336.85 95.0874C333.554 95.0874 330.87 92.4444 330.87 89.1978L330.87 70.5976C359.279 70.5181 636.016 69.7603 700.79 70.6023C716.252 70.8035 729.475 73.7835 740.097 79.458C748.56 83.977 755.405 90.2129 760.445 97.9926C769.062 111.288 769.436 124.686 769.441 124.793L769.441 211.535L744.661 211.535L744.661 175.64C744.661 136.844 740.055 115.69 729.264 104.907L729.269 104.907ZM811.66 29.7486C824.546 42.1735 831.082 59.0521 831.082 79.9118L831.082 211.53L771.788 211.53L771.788 124.765C771.778 124.195 771.414 110.656 762.479 96.809C757.228 88.6692 750.093 82.1479 741.275 77.4229C730.307 71.5473 716.701 68.4644 700.828 68.2539C636.044 67.4072 359.325 68.165 330.88 68.2493L330.88 10.8818C330.88 7.63518 333.563 4.99205 336.86 4.99205L716.682 4.99203C720.217 4.99203 723.892 4.9219 727.913 4.77218C740.981 4.29031 785.641 4.65994 811.665 29.7486L811.66 29.7486Z" fill="#3366FF"/>
</svg>
