<svg width="32" height="33" viewBox="0 0 32 33" fill="none" xmlns="http://www.w3.org/2000/svg">
<g id="ic:outline-tiktok">
<path id="Vector" d="M22.1335 7.96898C21.2223 6.92835 20.7201 5.59218 20.7202 4.20898H16.6002V20.7423C16.5691 21.6372 16.1916 22.4851 15.5473 23.107C14.903 23.7289 14.0423 24.0762 13.1469 24.0757C11.2535 24.0757 9.68021 22.529 9.68021 20.609C9.68021 18.3157 11.8935 16.5957 14.1735 17.3023V13.089C9.57354 12.4757 5.54688 16.049 5.54688 20.609C5.54688 25.049 9.22688 28.209 13.1335 28.209C17.3202 28.209 20.7202 24.809 20.7202 20.609V12.2223C22.3909 13.4221 24.3967 14.0658 26.4535 14.0623V9.94232C26.4535 9.94232 23.9469 10.0623 22.1335 7.96898Z" fill="white"/>
</g>
</svg>
